<svg width="55" height="60" viewBox="0 0 55 60" fill="none" xmlns="http://www.w3.org/2000/svg">
<path d="M53.5 34.0001C53.5 52.0001 42.5 59.0001 35.5 59.0001C30.5 59.0001 28.5 57.0001 27.5 57.0001C26.5 57.0001 24.5 59.0001 19.5 59.0001C12.5 59.0001 1.5 52.0001 1.5 34.0001C1.5 18.0001 10.5 14.0001 19.5 14.0001H19.51C22.2311 13.9439 24.9393 14.388 27.5 15.3101H27.51C30.0707 14.388 32.7789 13.9439 35.5 14.0001C44.5 14.0001 53.5 18.0001 53.5 34.0001Z" fill="#F44335"/>
<path d="M35.5 14C34.983 14 34.49 14.017 34.008 14.041C42.478 14.487 50.5 18.9 50.5 34C50.5 50.9 40.809 58.1 33.83 58.919C34.347 58.97 34.9 59 35.5 59C42.5 59 53.5 52 53.5 34C53.5 18 44.5 14 35.5 14Z" fill="#C81E1E"/>
<path d="M30.55 16.9201C29.6048 16.2636 28.5841 15.7231 27.51 15.3101L30.55 16.9201Z" fill="#F44335"/>
<path d="M27.5 10.3801V15.3101C24.9393 14.388 22.2311 13.9439 19.51 14.0001H19.5C18.2758 13.5539 17.161 12.8516 16.23 11.9401C12.49 8.12008 13.74 1.08008 13.74 1.08008C13.74 1.08008 21.06 0.240083 24.81 4.06008C26.3618 5.82338 27.305 8.03928 27.5 10.3801Z" fill="#60A917"/>
<path d="M24.81 4.06015C21.468 0.660145 15.31 0.952145 14 1.06015C16.434 1.23515 19.691 1.90515 21.81 4.06015C23.3618 5.82344 24.305 8.03934 24.5 10.3801V14.4631C25.5221 14.6603 26.5257 14.9437 27.5 15.3101V10.3801C27.305 8.03934 26.3618 5.82344 24.81 4.06015Z" fill="#549414"/>
<path d="M5.733 31C5.69086 31.0003 5.64876 30.9977 5.607 30.992C5.34374 30.9591 5.10437 30.8228 4.94157 30.6133C4.77878 30.4038 4.7059 30.1382 4.739 29.875C5.827 21.211 10.655 17 19.5 17C20.0523 17 20.5 17.4477 20.5 18C20.5 18.5523 20.0523 19 19.5 19C11.736 19 7.676 22.535 6.724 30.125C6.66106 30.6246 6.23651 30.9994 5.733 31Z" fill="#F5F5F5"/>
<path d="M5.5 35C6.05228 35 6.5 34.5523 6.5 34C6.5 33.4477 6.05228 33 5.5 33C4.94772 33 4.5 33.4477 4.5 34C4.5 34.5523 4.94772 35 5.5 35Z" fill="#F5F5F5"/>
<path d="M0.5 34.0001C0.5 52.9411 12.154 60.0001 19.5 60.0001C21.9824 60.0404 24.4374 59.4773 26.654 58.3591C26.9225 58.2214 27.1998 58.1015 27.484 58.0001C27.7814 58.0939 28.0699 58.2141 28.346 58.3591C30.5626 59.4773 33.0176 60.0404 35.5 60.0001C42.846 60.0001 54.5 52.9411 54.5 34.0001C54.5 16.6431 44.167 13.0001 35.5 13.0001C33.1334 12.9774 30.7759 13.2957 28.5 13.9451V9.00008C28.5 7.11908 28.5 3.61808 31.947 1.90008C32.2668 1.74038 32.477 1.42223 32.4986 1.06546C32.5202 0.7087 32.3498 0.367528 32.0516 0.170463C31.7534 -0.0266023 31.3728 -0.0496216 31.053 0.110076C28.9782 1.1092 27.4575 2.98223 26.906 5.21808C26.5245 4.5446 26.0598 3.92172 25.523 3.36408C21.478 -0.760924 13.944 0.0490761 13.626 0.0860761C13.1869 0.136769 12.8331 0.469788 12.756 0.905076C12.701 1.21308 11.462 8.50508 15.519 12.6441C15.712 12.8381 15.919 13.0201 16.137 13.1981C8.372 14.1491 0.5 18.8501 0.5 34.0001ZM14.629 2.02108C16.518 1.94008 21.413 2.02708 24.095 4.75908C25.4945 6.34626 26.3387 8.34618 26.5 10.4561V13.9401C24.2951 13.3152 22.0137 13.0015 19.722 13.0081C18.6847 12.6152 17.7392 12.0134 16.944 11.2401C14.3 8.53608 14.45 3.85508 14.629 2.02108ZM19.5 15.0001C22.0894 14.9487 24.6667 15.3654 27.108 16.2301H27.118L27.148 16.2401C28.1468 16.6255 29.0959 17.1291 29.975 17.7401C30.267 17.9524 30.6508 17.9907 30.9791 17.8405C31.3074 17.6902 31.5292 17.3747 31.5595 17.0149C31.5897 16.6551 31.4236 16.307 31.125 16.1041C30.844 15.9041 30.551 15.7171 30.249 15.5371C31.9744 15.1665 33.7353 14.9864 35.5 15.0001C46.78 15.0001 52.5 21.3931 52.5 34.0001C52.5 51.4841 42.073 58.0001 35.5 58.0001C33.313 58.0406 31.1496 57.543 29.2 56.5511C28.6798 56.2467 28.0998 56.0587 27.5 56.0001C26.9002 56.0587 26.3202 56.2467 25.8 56.5511C23.8504 57.543 21.687 58.0406 19.5 58.0001C12.927 58.0001 2.5 51.4841 2.5 34.0001C2.5 21.3931 8.22 15.0001 19.5 15.0001Z" fill="black"/>
</svg>
