<svg width="61" height="60" viewBox="0 0 61 60" fill="none" xmlns="http://www.w3.org/2000/svg">
<mask id="mask0_1_77" style="mask-type:luminance" maskUnits="userSpaceOnUse" x="0" y="0" width="61" height="60">
<path d="M0.5 3.8147e-06H60.5V60H0.5V3.8147e-06Z" fill="white"/>
</mask>
<g mask="url(#mask0_1_77)">
<path fill-rule="evenodd" clip-rule="evenodd" d="M27.7062 57.1979C28.0412 55.5472 29.7392 50.7676 38.1604 50.9681C38.1604 50.9681 39.1827 41.7845 44.604 39.4328C44.3523 38.7236 44.2147 37.96 44.2147 37.1643C44.2147 33.671 46.8561 30.7948 50.2505 30.4239C50.4952 30.3972 50.7438 30.3834 50.9955 30.3834C52.2775 30.3834 53.4762 30.7391 54.4987 31.3573C56.4632 32.5449 57.7764 34.7011 57.7764 37.1643C57.7764 40.8349 54.8596 43.8239 51.2175 43.9411C50.0158 53.3514 42.345 61.9075 27.6259 57.7488C27.6259 57.7488 27.6366 57.5409 27.7062 57.1979Z" fill="#73CA5B"/>
<path fill-rule="evenodd" clip-rule="evenodd" d="M18.9292 43.2743C25.9988 48.675 27.6259 57.7488 27.6259 57.7488C14.9866 57.7488 4.74048 47.1232 4.74048 34.0159C4.74048 30.7984 5.35923 27.7311 6.47778 24.9331C6.44532 25.1752 4.97392 36.5465 15.154 41.039C16.5585 41.6587 17.8118 42.4207 18.9292 43.2743Z" fill="#A6F074"/>
<path fill-rule="evenodd" clip-rule="evenodd" d="M16.607 32.8054C20.9661 35.2271 18.9291 43.2744 18.9291 43.2744C17.8117 42.4208 16.5584 41.6589 15.154 41.0392C4.9738 36.5467 6.44521 25.1754 6.47767 24.9333L6.47661 24.9326C0.513998 20.925 3.88349 15.8773 7.57314 16.1333L7.57302 16.1344C8.68536 16.2115 9.82677 16.7699 10.7503 17.9849L10.751 17.9856L10.7517 17.9863C12.7804 19.9907 12.7323 23.3606 12.7323 23.3606C16.7891 26.0153 16.607 32.8054 16.607 32.8054Z" fill="#73CA5B"/>
<path fill-rule="evenodd" clip-rule="evenodd" d="M50.2467 30.3981C48.6559 19.6127 40.0642 11.2169 29.4323 10.356C29.4323 10.356 32.0166 5.87126 38.7183 7.63457L38.7194 7.6334C40.1711 8.01567 41.8162 8.69114 43.6699 9.76891C43.6699 9.76891 49.2399 7.34723 51.4194 13.2804C58.561 13.9014 59.4696 21.5768 55.0521 25.9945C55.0521 25.9945 56.3671 28.002 54.4987 31.3574C53.4763 30.7391 52.2775 30.3835 50.9956 30.3835C50.7437 30.3835 50.4952 30.3977 50.2506 30.4245C50.2492 30.4156 50.248 30.4068 50.2467 30.3981Z" fill="#A6F074"/>
<path fill-rule="evenodd" clip-rule="evenodd" d="M50.2467 30.3979C50.248 30.4066 50.2492 30.4154 50.2505 30.4238C46.856 30.7947 44.2146 33.671 44.2146 37.1641C44.2146 37.9598 44.3522 38.7234 44.604 39.4327C39.1826 41.7843 38.1603 50.968 38.1603 50.968C29.7391 50.7675 28.0412 55.5471 27.7062 57.1978C27.6367 57.5408 27.6259 57.7488 27.6259 57.7488C27.6259 57.7488 25.9987 48.675 18.9292 43.2742C18.9292 43.2742 20.9662 35.227 16.607 32.8052C16.607 32.8052 16.7891 26.0151 12.7323 23.3605C12.7323 23.3605 12.7803 19.9905 10.7518 17.9861C14.9353 13.252 20.9457 10.2829 27.6259 10.2829C28.2339 10.2829 28.8361 10.3085 29.4321 10.3572C40.0638 11.2183 48.6559 19.6126 50.2467 30.3979Z" fill="#DCFFB6"/>
<path fill-rule="evenodd" clip-rule="evenodd" d="M38.7193 7.6334C38.7193 7.6334 37.1312 1.17168 29.6239 1.17168C22.1167 1.17168 21.148 6.49949 21.148 6.49949C21.148 6.49949 8.75519 5.18289 7.57324 16.1334L7.57312 16.1344C8.68546 16.2115 9.82675 16.7699 10.7504 17.9849L10.7518 17.9863C14.9353 13.2522 20.9457 10.283 27.6259 10.283C28.2339 10.283 28.8361 10.3087 29.4321 10.3574L29.4322 10.3559C29.4322 10.3559 32.0166 5.87125 38.7183 7.63457L38.7193 7.6334Z" fill="#73CA5B"/>
<path d="M29.4322 10.3559C29.4322 10.3559 33.2564 3.71454 43.6699 9.76879C43.6699 9.76879 49.2399 7.34711 51.4194 13.2803C58.561 13.9013 59.4696 21.5767 55.0521 25.9943C55.0521 25.9943 56.3671 28.0019 54.4987 31.3573L54.4985 31.3574C53.4762 30.7393 52.2775 30.3834 50.9956 30.3834C50.7437 30.3834 50.4952 30.3975 50.2506 30.4244C48.6699 19.6263 40.0725 11.2191 29.4321 10.3574L29.4322 10.3559Z" stroke="black" stroke-width="2.46094" stroke-miterlimit="2.613" stroke-linecap="round" stroke-linejoin="round"/>
<path d="M9.59931 48.6386C13.7883 54.1846 20.3058 57.7488 27.6259 57.7488C27.6259 57.7488 27.9892 50.726 38.1605 50.9681C38.1605 50.9681 39.1826 41.7844 44.604 39.4327C44.3523 38.7235 44.2147 37.9599 44.2147 37.1642C44.2147 33.6711 46.8563 30.7953 50.2507 30.4243C48.5817 19.0245 39.024 10.1355 27.335 10.2849M7.6997 45.6967C7.70942 45.7144 7.71915 45.7321 7.72876 45.7498M6.47778 24.9332C5.35923 27.7312 4.74048 30.7985 4.74048 34.016C4.74048 36.5201 5.11466 38.9339 5.80782 41.1999M19.2395 11.9273C15.9769 13.2607 13.0806 15.3496 10.7511 17.9855M22.4045 10.9035C22.3992 10.9048 22.394 10.9062 22.3887 10.9074" stroke="black" stroke-width="2.46094" stroke-miterlimit="2.613" stroke-linecap="round" stroke-linejoin="round"/>
<path d="M35.1939 20.3034C35.1939 20.3034 21.6713 27.7372 27.7061 57.198" stroke="black" stroke-width="2.46094" stroke-miterlimit="2.613" stroke-linecap="round" stroke-linejoin="round"/>
<path d="M27.6258 57.7488C27.6258 57.7488 25.4437 45.5799 15.1539 41.039C4.97385 36.5465 6.44526 25.1752 6.47772 24.9332" stroke="black" stroke-width="2.46094" stroke-miterlimit="2.613" stroke-linecap="round" stroke-linejoin="round"/>
<path d="M50.9955 30.3833C47.2505 30.3833 44.2147 33.4192 44.2147 37.1642C44.2147 37.9599 44.3523 38.7235 44.604 39.4328C39.1825 41.7844 38.1604 50.968 38.1604 50.968C27.9891 50.7259 27.6259 57.7488 27.6259 57.7488C42.345 61.9075 50.0158 53.3513 51.2175 43.941C54.8596 43.8238 57.7763 40.8349 57.7763 37.1642C57.7763 33.4192 54.7405 30.3833 50.9955 30.3833Z" stroke="black" stroke-width="2.46094" stroke-miterlimit="2.613" stroke-linecap="round" stroke-linejoin="round"/>
<path d="M16.607 32.8054C20.9662 35.2272 18.9291 43.2744 18.9291 43.2744C17.8239 42.4301 16.5855 41.6754 15.1996 41.0595L15.154 41.0392C4.97384 36.5467 6.44525 25.1754 6.47771 24.9333C6.47771 24.9333 6.47747 24.9331 6.47665 24.9326C-1.2835 19.7169 6.76306 12.7393 10.7504 17.9849C12.7805 19.9893 12.7324 23.3606 12.7324 23.3606C16.7892 26.0153 16.607 32.8054 16.607 32.8054Z" stroke="black" stroke-width="2.46094" stroke-miterlimit="2.613" stroke-linecap="round" stroke-linejoin="round"/>
<path d="M38.7183 7.63457L38.7193 7.6334C38.7193 7.6334 37.1312 1.1718 29.6239 1.1718C22.1167 1.1718 21.1479 6.49949 21.1479 6.49949C21.1479 6.49949 8.75507 5.18289 7.57324 16.1334L7.57312 16.1344C8.68546 16.2115 9.82675 16.7699 10.7504 17.9849L10.7518 17.9863" stroke="black" stroke-width="2.46094" stroke-miterlimit="2.613" stroke-linecap="round" stroke-linejoin="round"/>
<path d="M29.1992 27.6772C31.6209 25.2858 37.665 24.0837 41.4185 27.1411" stroke="black" stroke-width="2.46094" stroke-miterlimit="2.613" stroke-linecap="round" stroke-linejoin="round"/>
<path d="M27.1175 33.8267C27.1175 33.8267 24.2299 24.2794 19.5076 23.1292" stroke="black" stroke-width="2.46094" stroke-miterlimit="2.613" stroke-linecap="round" stroke-linejoin="round"/>
<path d="M32.413 38.6728C29.9553 38.6688 26.8761 39.6186 26.1581 42.6382M35.4484 39.4313C35.4346 39.4181 35.4203 39.4052 35.4052 39.3924" stroke="black" stroke-width="2.46094" stroke-miterlimit="2.613" stroke-linecap="round" stroke-linejoin="round"/>
<path d="M21.1479 6.49937L22.3788 7.47754" stroke="black" stroke-width="2.46094" stroke-miterlimit="2.613" stroke-linecap="round" stroke-linejoin="round"/>
<path d="M38.1604 50.9682C39.953 50.9507 41.2992 51.3235 42.1543 52.1262" stroke="black" stroke-width="2.46094" stroke-miterlimit="2.613" stroke-linecap="round" stroke-linejoin="round"/>
<path d="M12.7324 23.3606C12.7324 23.3606 11.8981 26.1765 12.2497 29.6042" stroke="black" stroke-width="2.46094" stroke-miterlimit="2.613" stroke-linecap="round" stroke-linejoin="round"/>
<path d="M51.4194 13.2802C51.4194 13.2802 49.0614 13.2454 47.6927 14.5481" stroke="black" stroke-width="2.46094" stroke-miterlimit="2.613" stroke-linecap="round" stroke-linejoin="round"/>
<path d="M51.2174 43.9412C51.2174 43.9412 51.4303 40.3359 51.9577 39.3691" stroke="black" stroke-width="2.46094" stroke-miterlimit="2.613" stroke-linecap="round" stroke-linejoin="round"/>
</g>
</svg>
