<svg width="50" height="50" viewBox="0 0 50 50" fill="none" xmlns="http://www.w3.org/2000/svg">
<path d="M49.581 45.6492L46.027 43.1539C45.7247 42.9418 45.3335 42.9157 45.0059 43.086C44.6782 43.2563 44.4747 43.5914 44.4747 43.9607V45.7226H37.3056V35.9227H38.1662C41.1703 35.9227 43.6143 33.4788 43.6143 30.4747V30.2033C43.6143 29.3092 42.8868 28.5818 41.9928 28.5818H41.2867C39.7168 28.5818 38.3007 29.2502 37.3056 30.3162V23.5587H39.4166C43.0145 23.5587 45.9417 20.6316 45.9417 17.0337C45.9417 16.3327 45.3714 15.7623 44.6704 15.7623H41.8259C41.7929 15.7623 41.7601 15.7633 41.7274 15.7644L41.6924 15.7654C41.2874 15.7742 40.9663 16.1098 40.9752 16.5148C40.9841 16.9197 41.3186 17.2436 41.7245 17.232L41.7769 17.2304C41.7933 17.2299 41.8095 17.2292 41.8259 17.2292H44.471C44.3677 19.9279 42.1402 22.0917 39.4166 22.0917H37.3056V21.7495C37.3056 20.3547 37.9362 19.0591 39.0359 18.1946C39.3544 17.9443 39.4096 17.4831 39.1593 17.1646C38.909 16.8461 38.4478 16.791 38.1294 17.0413C37.3401 17.6618 36.7351 18.4512 36.345 19.3378C35.5669 18.3892 34.3864 17.7828 33.0667 17.7828H31.7165C30.8691 17.7828 30.1797 18.4722 30.1797 19.3196C30.1797 21.657 32.0813 23.5586 34.4186 23.5586H35.8388V34.0298V35.189V45.7224H30.9794C30.5742 45.7224 30.2459 46.0508 30.2459 46.4558C30.2459 46.8609 30.5742 47.1893 30.9794 47.1893H44.4748V48.9512C44.4748 49.3204 44.6783 49.6557 45.006 49.826C45.1498 49.9007 45.3057 49.9376 45.4611 49.9376C45.6598 49.9376 45.8576 49.8772 46.0271 49.7581L49.5811 47.2628C49.8438 47.0784 50.0005 46.7767 50.0005 46.4559C50.0004 46.1353 49.8436 45.8337 49.581 45.6492ZM31.6467 19.3198C31.6467 19.2813 31.678 19.25 31.7165 19.25H33.0667C34.5952 19.25 35.8388 20.4935 35.8388 22.022V22.0919H34.4186C32.8902 22.0919 31.6467 20.8484 31.6467 19.3198ZM41.2867 30.0489H41.9928C42.078 30.0489 42.1473 30.1181 42.1473 30.2034V30.4748C42.1473 32.67 40.3614 34.4559 38.1662 34.4559H37.3056V34.03C37.3056 31.8348 39.0915 30.0489 41.2867 30.0489ZM45.9417 48.0258V44.8865L48.1772 46.4561L45.9417 48.0258Z" fill="#F7C35F"/>
<path d="M27.853 45.7226H25.7826V36.9521H26.8607C29.6122 36.9521 31.8506 34.7136 31.8506 31.9623V31.1167C31.8506 30.1795 31.0882 29.4172 30.1511 29.4172H29.3055C27.3091 29.4172 25.5836 30.5962 24.7865 32.2941C24.1386 31.6211 23.2298 31.201 22.2241 31.201H21.2989C20.5999 31.201 20.0312 31.7697 20.0312 32.4687V33.3937C20.0312 35.3559 21.6275 36.9522 23.5897 36.9522H24.3156V45.7227H15.2391V43.2354H15.7823C18.0515 43.2354 19.8977 41.3892 19.8977 39.1199V38.2132C19.8977 37.4034 19.2389 36.7444 18.4289 36.7444H17.8876C16.3411 36.7444 14.9918 37.6022 14.2886 38.8667C13.7073 38.2893 12.9072 37.9319 12.025 37.9319H11.3126C10.6792 37.9319 10.164 38.4472 10.164 39.0804V40.0213C10.164 41.7935 11.6058 43.2353 13.378 43.2353H13.7721V45.7226H4.512V39.1857H5.25976C5.66494 39.1857 5.99324 38.8573 5.99324 38.4522C5.99324 38.0472 5.66494 37.7188 5.25976 37.7188H4.512V32.1293H5.25976C5.66494 32.1293 5.99324 31.8009 5.99324 31.3958C5.99324 30.9908 5.66494 30.6623 5.25976 30.6623H4.512V25.073H5.25976C5.66494 25.073 5.99324 24.7446 5.99324 24.3395C5.99324 23.9344 5.66494 23.606 5.25976 23.606H4.512V18.0167H5.25976C5.66494 18.0167 5.99324 17.6883 5.99324 17.2832C5.99324 16.8781 5.66494 16.5497 5.25976 16.5497H4.512V10.9603H5.25976C5.66494 10.9603 5.99324 10.6319 5.99324 10.2268C5.99324 9.82174 5.66494 9.49333 5.25976 9.49333H4.512V5.58778H6.27392C6.64311 5.58778 6.97826 5.38426 7.14853 5.05664C7.31889 4.72901 7.29298 4.33773 7.08076 4.03533L4.58544 0.48146C4.4011 0.218971 4.09959 0.0622011 3.77881 0.0621033C3.77871 0.0621033 3.77861 0.0621033 3.77852 0.0621033C3.45784 0.0621033 3.15623 0.218775 2.97168 0.48146L0.476373 4.03533C0.264152 4.33753 0.23804 4.72882 0.408404 5.05654C0.578767 5.38426 0.91392 5.58778 1.2832 5.58778H3.04503V45.7226H0.733483C0.328307 45.7226 0 46.051 0 46.4561C0 46.8612 0.328307 47.1896 0.733483 47.1896H27.853C28.2582 47.1896 28.5865 46.8612 28.5865 46.4561C28.5865 46.051 28.2581 45.7226 27.853 45.7226ZM25.7826 34.407C25.7826 32.4645 27.3629 30.8842 29.3055 30.8842H30.1511C30.2794 30.8842 30.3836 30.9885 30.3836 31.1167V31.9623C30.3836 33.9048 28.8033 35.4851 26.8607 35.4851H25.7826V34.7593V34.407ZM21.4983 33.3937V32.6679H22.2242C23.3774 32.6679 24.3157 33.6062 24.3157 34.7594V35.4852H23.5898C22.4366 35.4852 21.4983 34.547 21.4983 33.3937ZM15.2392 40.8599C15.2392 39.3995 16.4273 38.2115 17.8877 38.2115L18.4309 38.2133V39.12C18.4309 40.5804 17.2428 41.7686 15.7824 41.7686H15.2392V41.1461V40.8599ZM11.6312 40.0214V39.3989H12.0252C12.9886 39.3989 13.7723 40.1827 13.7723 41.146V41.7685H13.3781C12.4148 41.7685 11.6312 40.9847 11.6312 40.0214ZM3.77852 1.88515L5.34827 4.12081H2.20876L3.77852 1.88515Z" fill="#F7C35F"/>
<path d="M36.1457 4.49581L33.1076 4.12614C32.7057 4.07724 32.3397 4.36349 32.2908 4.76573C32.2419 5.16788 32.5282 5.53354 32.9303 5.58244L34.2191 5.73921L21.0376 16.1343L20.4627 14.905C20.3669 14.7 20.1818 14.5507 19.9611 14.5005C19.7407 14.4506 19.509 14.5046 19.3338 14.648L8.05033 23.8788C7.73679 24.1354 7.69053 24.5975 7.94705 24.911C8.09209 25.0882 8.30284 25.18 8.51516 25.18C8.67858 25.18 8.84298 25.1258 8.97921 25.0143L19.5332 16.3802L20.1007 17.594C20.1955 17.7969 20.3779 17.9453 20.5958 17.997C20.8136 18.0486 21.0433 17.998 21.2193 17.8592L35.3238 6.73655V8.45603C35.3238 8.86111 35.6521 9.18952 36.0573 9.18952C36.4624 9.18952 36.7908 8.86111 36.7908 8.45603V5.22401C36.7908 4.81512 36.4645 4.53474 36.1457 4.49581Z" fill="#F7C35F"/>
</svg>
