<svg width="24" height="25" viewBox="0 0 24 25" fill="none" xmlns="http://www.w3.org/2000/svg">
<path d="M12 9.70215C11.138 9.70215 10.3114 10.0446 9.7019 10.6541C9.09241 11.2635 8.75 12.0902 8.75 12.9521C8.75 13.8141 9.09241 14.6408 9.7019 15.2502C10.3114 15.8597 11.138 16.2021 12 16.2021C12.862 16.2021 13.6886 15.8597 14.2981 15.2502C14.9076 14.6408 15.25 13.8141 15.25 12.9521C15.25 12.0902 14.9076 11.2635 14.2981 10.6541C13.6886 10.0446 12.862 9.70215 12 9.70215Z" fill="#F7C35F"/>
<path fill-rule="evenodd" clip-rule="evenodd" d="M6.77007 4.03409C10.2461 3.64879 13.754 3.64879 17.2301 4.03409C19.1291 4.24609 20.6601 5.74109 20.8831 7.64709C21.2953 11.1717 21.2953 14.7324 20.8831 18.2571C20.6601 20.1631 19.1291 21.6581 17.2311 21.8711C13.7547 22.2565 10.2464 22.2565 6.77007 21.8711C4.87107 21.6581 3.34007 20.1631 3.11707 18.2581C2.70479 14.7331 2.70479 11.1721 3.11707 7.64709C3.34007 5.74109 4.87107 4.24609 6.77007 4.03409ZM17.0001 6.95209C16.7348 6.95209 16.4805 7.05745 16.293 7.24499C16.1054 7.43252 16.0001 7.68688 16.0001 7.95209C16.0001 8.21731 16.1054 8.47166 16.293 8.6592C16.4805 8.84673 16.7348 8.95209 17.0001 8.95209C17.2653 8.95209 17.5196 8.84673 17.7072 8.6592C17.8947 8.47166 18.0001 8.21731 18.0001 7.95209C18.0001 7.68688 17.8947 7.43252 17.7072 7.24499C17.5196 7.05745 17.2653 6.95209 17.0001 6.95209ZM7.25007 12.9521C7.25007 11.6923 7.75051 10.4841 8.64131 9.59333C9.53211 8.70254 10.7403 8.20209 12.0001 8.20209C13.2598 8.20209 14.468 8.70254 15.3588 9.59333C16.2496 10.4841 16.7501 11.6923 16.7501 12.9521C16.7501 14.2119 16.2496 15.4201 15.3588 16.3108C14.468 17.2016 13.2598 17.7021 12.0001 17.7021C10.7403 17.7021 9.53211 17.2016 8.64131 16.3108C7.75051 15.4201 7.25007 14.2119 7.25007 12.9521Z" fill="#F7C35F"/>
</svg>
