<svg width="61" height="60" viewBox="0 0 61 60" fill="none" xmlns="http://www.w3.org/2000/svg">
<g clip-path="url(#clip0_1_142)">
<mask id="mask0_1_142" style="mask-type:luminance" maskUnits="userSpaceOnUse" x="0" y="0" width="61" height="60">
<path d="M0.5 3.8147e-06H60.5V60H0.5V3.8147e-06Z" fill="white"/>
</mask>
<g mask="url(#mask0_1_142)">
<path d="M19.7107 4.33243C19.5731 4.23036 19.3864 4.23036 19.2489 4.33243C16.7087 6.21693 14.9742 9.99939 14.9742 14.3589C14.9742 18.7183 16.7087 22.5008 19.2489 24.3852C19.3864 24.4872 19.5731 24.4872 19.7107 24.3852C22.2509 22.5008 23.9854 18.7183 23.9854 14.3589C23.9854 9.99939 22.2509 6.21693 19.7107 4.33243Z" fill="#09A76D"/>
<path d="M19.7107 4.33243C19.5731 4.23036 19.3864 4.23036 19.2489 4.33243C16.7087 6.21693 14.9742 9.99939 14.9742 14.3589C14.9742 18.7183 16.7087 22.5008 19.2489 24.3852C19.3864 24.4872 19.5731 24.4872 19.7107 24.3852C22.2509 22.5008 23.9854 18.7183 23.9854 14.3589C23.9854 9.99939 22.2509 6.21693 19.7107 4.33243Z" stroke="black" stroke-width="1.81641" stroke-miterlimit="10" stroke-linecap="round" stroke-linejoin="round"/>
<path d="M6.18844 7.10567C6.0191 7.13074 5.88703 7.26293 5.86195 7.43227C5.39824 10.5608 6.84644 14.462 9.92906 17.5446C13.0117 20.6271 16.9127 22.0753 20.0414 21.6117C20.2107 21.5866 20.3428 21.4545 20.3679 21.2851C20.8316 18.1564 19.3834 14.2554 16.3008 11.1729C13.2182 8.09027 9.31711 6.64195 6.18844 7.10567Z" fill="#02905D"/>
<path d="M6.18844 7.10566C6.0191 7.13074 5.88703 7.26293 5.86195 7.43227C5.39824 10.5608 6.84644 14.462 9.92906 17.5446C13.0117 20.6271 16.9127 22.0753 20.0414 21.6117C20.2107 21.5866 20.3428 21.4545 20.3679 21.2851C20.8316 18.1564 19.3834 14.2554 16.3008 11.1729C13.2182 8.09027 9.31711 6.64195 6.18844 7.10566Z" stroke="black" stroke-width="1.81641" stroke-miterlimit="10" stroke-linecap="round" stroke-linejoin="round"/>
<path d="M33.0977 7.43223C33.0726 7.26289 32.9405 7.13082 32.7712 7.10563C29.6425 6.64203 25.7415 8.09024 22.6589 11.1729C19.5762 14.2554 18.128 18.1565 18.5917 21.2851C18.6168 21.4545 18.7489 21.5866 18.9182 21.6117C22.0469 22.0754 25.948 20.6272 29.0306 17.5446C32.1132 14.462 33.5614 10.5609 33.0977 7.43223Z" fill="#02905D"/>
<path d="M26.5273 8.33856C25.1766 9.02645 23.8559 9.97578 22.6589 11.1729C19.5764 14.2555 18.128 18.1565 18.5917 21.2852C18.6168 21.4545 18.749 21.5866 18.9182 21.6117C22.047 22.0754 25.9481 20.6272 29.0306 17.5446C32.1132 14.462 33.5614 10.5609 33.0977 7.43223C33.0727 7.26289 32.9406 7.13082 32.7712 7.10563C32.0296 6.99582 31.2444 6.99465 30.4371 7.0959" stroke="black" stroke-width="1.81641" stroke-miterlimit="10" stroke-linecap="round" stroke-linejoin="round"/>
<path d="M23.0797 17.781C22.9395 17.6768 22.8867 17.4921 22.9506 17.3296C23.7869 15.2033 26.0698 13.2674 29.0864 12.4043C32.1029 11.5412 35.0643 11.9768 36.8987 13.3388C37.0388 13.4429 37.0917 13.6276 37.0278 13.7902C36.1915 15.9164 33.9085 17.8523 30.8921 18.7154C27.8756 19.5785 24.9141 19.143 23.0797 17.781Z" fill="#09A76D"/>
<path d="M15.8799 17.781C16.0201 17.6768 16.0729 17.4921 16.0091 17.3296C15.1727 15.2033 12.8898 13.2674 9.87326 12.4043C6.85674 11.5412 3.89529 11.9768 2.06096 13.3388C1.9208 13.4429 1.86795 13.6276 1.93181 13.7902C2.76818 15.9164 5.05111 17.8523 8.06752 18.7154C11.084 19.5785 14.0455 19.143 15.8799 17.781Z" fill="#09A76D"/>
<path d="M23.0797 17.781C22.9395 17.6768 22.8867 17.4921 22.9506 17.3296C23.7869 15.2033 26.0698 13.2674 29.0864 12.4043C32.1029 11.5412 35.0643 11.9768 36.8987 13.3388C37.0388 13.4429 37.0917 13.6276 37.0278 13.7902C36.1915 15.9164 33.9085 17.8523 30.8921 18.7154C27.8756 19.5785 24.9141 19.143 23.0797 17.781Z" stroke="black" stroke-width="1.81641" stroke-miterlimit="10" stroke-linecap="round" stroke-linejoin="round"/>
<path d="M15.8799 17.781C16.0201 17.6768 16.0729 17.4921 16.0091 17.3296C15.1727 15.2033 12.8898 13.2674 9.87326 12.4043C6.85674 11.5412 3.89529 11.9768 2.06096 13.3388C1.9208 13.4429 1.86795 13.6276 1.93181 13.7902C2.76818 15.9164 5.05111 17.8523 8.06752 18.7154C11.084 19.5785 14.0455 19.143 15.8799 17.781Z" stroke="black" stroke-width="1.81641" stroke-miterlimit="10" stroke-linecap="round" stroke-linejoin="round"/>
<path d="M24.4314 51.4894L36.3629 30.0813C39.8988 23.737 35.312 15.9296 28.0489 15.9296H10.9107C3.64764 15.9296 -0.939193 23.737 2.5967 30.0813L14.5281 51.4894C16.6899 55.3681 22.2697 55.3681 24.4314 51.4894Z" fill="#FB2B3A"/>
<path d="M20.6805 51.4895L8.74906 30.0814C5.21316 23.7371 9.79988 15.9297 17.063 15.9297H10.9107C3.64754 15.9297 -0.939179 23.7371 2.59672 30.0814L14.5282 51.4895C16.2091 54.5054 19.9557 55.1751 22.556 53.5011C21.812 53.0221 21.1614 52.3524 20.6805 51.4895Z" fill="#E41F2D"/>
<path d="M24.4314 51.4894L36.3629 30.0813C39.8988 23.737 35.3121 15.9296 28.0489 15.9296H10.9107C3.64764 15.9296 -0.939194 23.737 2.5967 30.0813L14.5281 51.4894C16.6899 55.3681 22.2697 55.3681 24.4314 51.4894Z" stroke="black" stroke-width="1.81641" stroke-miterlimit="10" stroke-linecap="round" stroke-linejoin="round"/>
<path d="M8.3233 26.9813V28.5217" stroke="black" stroke-width="1.81641" stroke-miterlimit="10" stroke-linecap="round" stroke-linejoin="round"/>
<path d="M15.7609 26.9813V28.5217" stroke="black" stroke-width="1.81641" stroke-miterlimit="10" stroke-linecap="round" stroke-linejoin="round"/>
<path d="M23.1987 26.9813V28.5217" stroke="black" stroke-width="1.81641" stroke-miterlimit="10" stroke-linecap="round" stroke-linejoin="round"/>
<path d="M30.6363 26.9813V28.5217" stroke="black" stroke-width="1.81641" stroke-miterlimit="10" stroke-linecap="round" stroke-linejoin="round"/>
<path d="M12.0422 21.26V22.8003" stroke="black" stroke-width="1.81641" stroke-miterlimit="10" stroke-linecap="round" stroke-linejoin="round"/>
<path d="M19.4798 21.26V22.8003" stroke="black" stroke-width="1.81641" stroke-miterlimit="10" stroke-linecap="round" stroke-linejoin="round"/>
<path d="M26.9174 21.26V22.8003" stroke="black" stroke-width="1.81641" stroke-miterlimit="10" stroke-linecap="round" stroke-linejoin="round"/>
<path d="M12.0422 33.4177V34.958" stroke="black" stroke-width="1.81641" stroke-miterlimit="10" stroke-linecap="round" stroke-linejoin="round"/>
<path d="M19.4798 33.4177V34.958" stroke="black" stroke-width="1.81641" stroke-miterlimit="10" stroke-linecap="round" stroke-linejoin="round"/>
<path d="M26.9174 33.4177V34.958" stroke="black" stroke-width="1.81641" stroke-miterlimit="10" stroke-linecap="round" stroke-linejoin="round"/>
<path d="M15.6179 39.458V40.9983" stroke="black" stroke-width="1.81641" stroke-miterlimit="10" stroke-linecap="round" stroke-linejoin="round"/>
<path d="M23.0556 39.458V40.9983" stroke="black" stroke-width="1.81641" stroke-miterlimit="10" stroke-linecap="round" stroke-linejoin="round"/>
<path d="M19.3367 46.0045V47.5449" stroke="black" stroke-width="1.81641" stroke-miterlimit="10" stroke-linecap="round" stroke-linejoin="round"/>
<path d="M53.5269 25.1459C53.5061 25.0055 53.3966 24.8959 53.2561 24.8751C50.6623 24.4907 47.4279 25.6914 44.8721 28.2472C42.3165 30.8029 41.1158 34.0373 41.5002 36.6311C41.5211 36.7716 41.6305 36.8811 41.771 36.9018C44.3647 37.2863 47.5992 36.0856 50.155 33.5299C52.7106 30.9741 53.9113 27.7399 53.5269 25.1459Z" fill="#09A76D"/>
<path d="M53.5269 25.1459C53.5061 25.0055 53.3966 24.8959 53.2561 24.8751C50.6623 24.4907 47.4279 25.6914 44.8721 28.2472C42.3165 30.8029 41.1158 34.0373 41.5002 36.6311C41.5211 36.7716 41.6305 36.8811 41.771 36.9018C44.3647 37.2863 47.5992 36.0856 50.155 33.5299C52.7106 30.9741 53.9113 27.7399 53.5269 25.1459Z" stroke="black" stroke-width="1.81641" stroke-miterlimit="10" stroke-linecap="round" stroke-linejoin="round"/>
<path d="M43.9735 18.8443C43.8594 18.7597 43.7046 18.7597 43.5906 18.8443C41.4846 20.4067 40.0466 23.5427 40.0466 27.1571C40.0466 30.7714 41.4846 33.9075 43.5906 35.4698C43.7046 35.5543 43.8594 35.5543 43.9735 35.4698C46.0796 33.9075 47.5175 30.7714 47.5175 27.1571C47.5175 23.5427 46.0796 20.4067 43.9735 18.8443Z" fill="#02905D"/>
<path d="M45.8385 20.9084C45.3114 20.071 44.6803 19.3687 43.9735 18.8442C43.8594 18.7597 43.7046 18.7597 43.5906 18.8442C41.4846 20.4066 40.0466 23.5426 40.0466 27.1571C40.0466 30.7713 41.4846 33.9074 43.5906 35.4697C43.7046 35.5544 43.8594 35.5544 43.9735 35.4697C46.0796 33.9074 47.5175 30.7713 47.5175 27.1571C47.5175 26.333 47.442 25.5341 47.3015 24.7728" stroke="black" stroke-width="1.81641" stroke-miterlimit="10" stroke-linecap="round" stroke-linejoin="round"/>
<path d="M59.5577 34.8115C59.6423 34.6975 59.6423 34.5427 59.5577 34.4285C57.9954 32.3227 54.8593 30.8845 51.2449 30.8845C47.6307 30.8845 44.4946 32.3227 42.9322 34.4285C42.8476 34.5427 42.8476 34.6975 42.9322 34.8115C44.4946 36.9175 47.6307 38.3555 51.2449 38.3555C54.8593 38.3555 57.9954 36.9175 59.5577 34.8115Z" fill="#09A76D"/>
<path d="M59.5577 34.8115C59.6423 34.6975 59.6423 34.5427 59.5577 34.4285C57.9954 32.3227 54.8593 30.8845 51.2449 30.8845C47.6307 30.8845 44.4946 32.3227 42.9322 34.4285C42.8476 34.5427 42.8476 34.6975 42.9322 34.8115C44.4946 36.9175 47.6307 38.3555 51.2449 38.3555C54.8593 38.3555 57.9954 36.9175 59.5577 34.8115Z" stroke="black" stroke-width="1.81641" stroke-miterlimit="10" stroke-linecap="round" stroke-linejoin="round"/>
<path d="M47.6177 35.0052C47.5965 34.862 47.6739 34.7227 47.8066 34.6649C49.5436 33.9087 52.0168 34.112 54.2912 35.3745C56.5656 36.6369 58.0464 38.6284 58.3233 40.5024C58.3445 40.6456 58.2671 40.7849 58.1344 40.8427C56.3977 41.5989 53.9243 41.3954 51.6499 40.133C49.3755 38.8705 47.8947 36.8792 47.6177 35.0052Z" fill="#02905D"/>
<path d="M47.6177 35.0052C47.5965 34.862 47.6739 34.7227 47.8066 34.6649C49.5436 33.9087 52.0168 34.112 54.2912 35.3745C56.5656 36.6369 58.0464 38.6284 58.3233 40.5024C58.3445 40.6456 58.2671 40.7849 58.1344 40.8427C56.3977 41.5989 53.9243 41.3954 51.6499 40.133C49.3755 38.8705 47.8947 36.8792 47.6177 35.0052Z" stroke="black" stroke-width="1.81641" stroke-miterlimit="10" stroke-linecap="round" stroke-linejoin="round"/>
<path d="M43.397 30.7844C43.5402 30.8056 43.6794 30.7282 43.7371 30.5955C44.4934 28.8586 44.29 26.3854 43.0276 24.111C41.7651 21.8366 39.7737 20.3557 37.8998 20.0788C37.7565 20.0576 37.6173 20.1349 37.5595 20.2677C36.8032 22.0046 37.0067 24.4778 38.2691 26.7522C39.5315 29.0266 41.523 30.5074 43.397 30.7844Z" fill="#09A76D"/>
<path d="M43.397 30.7844C43.5402 30.8056 43.6794 30.7282 43.7371 30.5955C44.4934 28.8586 44.29 26.3854 43.0276 24.111C41.7651 21.8366 39.7737 20.3557 37.8998 20.0788C37.7565 20.0576 37.6173 20.1349 37.5595 20.2677C36.8032 22.0046 37.0067 24.4778 38.2691 26.7522C39.5315 29.0266 41.523 30.5074 43.397 30.7844Z" stroke="black" stroke-width="1.81641" stroke-miterlimit="10" stroke-linecap="round" stroke-linejoin="round"/>
<path d="M28.6486 55.5594L48.1939 50.0036C53.9862 48.3573 55.8743 41.0911 51.6163 36.8331L41.5691 26.7859C37.3111 22.5279 30.0449 24.416 28.3984 30.2082L22.8428 49.7536C21.8361 53.2947 25.1073 56.5659 28.6486 55.5594Z" fill="#FB2B3A"/>
<path d="M27.7551 54.0095L33.3108 34.4641C34.6944 29.5964 40.0468 27.4867 44.2474 29.4642L41.5691 26.7858C37.3111 22.5278 30.0449 24.4159 28.3984 30.2082L22.8428 49.7536C21.9375 52.9383 24.4924 55.9027 27.5917 55.7354C27.541 55.1797 27.5876 54.5986 27.7551 54.0095Z" fill="#E41F2D"/>
<path d="M42.8709 51.5168L48.194 50.0036C53.9863 48.3573 55.8743 41.0911 51.6163 36.8331L41.5691 26.7859C37.3111 22.5279 30.0449 24.416 28.3984 30.2082L22.8428 49.7536C21.8362 53.2947 25.1073 56.5659 28.6486 55.5594L38.9229 52.639" stroke="black" stroke-width="1.81641" stroke-miterlimit="10" stroke-linecap="round" stroke-linejoin="round"/>
<path d="M33.5731 31.7481L32.67 32.6511" stroke="black" stroke-width="1.81641" stroke-miterlimit="10" stroke-linecap="round" stroke-linejoin="round"/>
<path d="M37.9334 36.1082L37.0303 37.0112" stroke="black" stroke-width="1.81641" stroke-miterlimit="10" stroke-linecap="round" stroke-linejoin="round"/>
<path d="M42.2937 40.4685L41.3908 41.3716" stroke="black" stroke-width="1.81641" stroke-miterlimit="10" stroke-linecap="round" stroke-linejoin="round"/>
<path d="M46.6541 44.8289L45.7511 45.7319" stroke="black" stroke-width="1.81641" stroke-miterlimit="10" stroke-linecap="round" stroke-linejoin="round"/>
<path d="M39.1073 30.574L38.2043 31.4771" stroke="black" stroke-width="1.81641" stroke-miterlimit="10" stroke-linecap="round" stroke-linejoin="round"/>
<path d="M43.4676 34.9344L42.5646 35.8374" stroke="black" stroke-width="1.81641" stroke-miterlimit="10" stroke-linecap="round" stroke-linejoin="round"/>
<path d="M47.828 39.2947L46.925 40.1978" stroke="black" stroke-width="1.81641" stroke-miterlimit="10" stroke-linecap="round" stroke-linejoin="round"/>
<path d="M31.9798 37.7014L31.0769 38.6045" stroke="black" stroke-width="1.81641" stroke-miterlimit="10" stroke-linecap="round" stroke-linejoin="round"/>
<path d="M36.3403 42.0618L35.4373 42.9648" stroke="black" stroke-width="1.81641" stroke-miterlimit="10" stroke-linecap="round" stroke-linejoin="round"/>
<path d="M40.7006 46.4221L39.7975 47.3252" stroke="black" stroke-width="1.81641" stroke-miterlimit="10" stroke-linecap="round" stroke-linejoin="round"/>
<path d="M30.535 43.3389L29.632 44.2419" stroke="black" stroke-width="1.81641" stroke-miterlimit="10" stroke-linecap="round" stroke-linejoin="round"/>
<path d="M34.8954 47.6992L33.9923 48.6023" stroke="black" stroke-width="1.81641" stroke-miterlimit="10" stroke-linecap="round" stroke-linejoin="round"/>
<path d="M28.8774 49.357L27.9743 50.26" stroke="black" stroke-width="1.81641" stroke-miterlimit="10" stroke-linecap="round" stroke-linejoin="round"/>
</g>
</g>
<defs>
<clipPath id="clip0_1_142">
<rect width="60" height="60" fill="white" transform="translate(0.5)"/>
</clipPath>
</defs>
</svg>
